<?xml version="1.0" standalone="no"?>
<!DOCTYPE svg PUBLIC "-//W3C//DTD SVG 20010904//EN"
 "http://www.w3.org/TR/2001/REC-SVG-20010904/DTD/svg10.dtd">
<svg version="1.0" xmlns="http://www.w3.org/2000/svg"
 width="260.000000pt" height="260.000000pt" viewBox="0 0 260.000000 260.000000"
 preserveAspectRatio="xMidYMid meet">
<metadata>
Created by potrace 1.14, written by Peter Selinger 2001-2017
</metadata>
<g transform="translate(0.000000,260.000000) scale(0.100000,-0.100000)"
fill="#000000" stroke="none">
<path d="M1295 2490 c-11 -4 -23 -6 -27 -3 -5 2 -8 0 -8 -4 0 -5 -21 -20 -47
-33 -26 -14 -54 -31 -61 -38 -8 -7 -18 -10 -23 -7 -5 4 -9 2 -9 -2 0 -5 -17
-17 -37 -28 -21 -11 -54 -31 -72 -45 -19 -14 -31 -18 -26 -10 4 8 -3 5 -17 -7
-13 -13 -27 -23 -29 -23 -3 0 -61 -31 -128 -70 -68 -38 -127 -70 -132 -70 -5
0 -9 -4 -9 -9 0 -5 -9 -13 -21 -16 -11 -4 -65 -33 -120 -65 -54 -33 -99 -56
-99 -52 0 4 -4 2 -8 -4 -4 -6 -31 -24 -61 -40 -29 -16 -59 -38 -67 -49 -10
-16 -13 -138 -13 -585 0 -311 2 -579 5 -596 4 -20 14 -34 32 -42 15 -6 41 -21
57 -32 17 -11 39 -24 50 -30 11 -6 34 -19 50 -30 36 -23 69 -42 113 -64 17
-10 32 -22 32 -28 0 -6 3 -9 6 -5 3 3 40 -16 82 -41 106 -65 114 -70 137 -82
11 -6 34 -19 50 -30 17 -11 48 -29 70 -41 22 -12 43 -27 47 -33 4 -6 8 -7 8
-2 0 5 8 2 17 -7 10 -8 25 -17 33 -19 8 -2 17 -5 20 -8 10 -10 69 -50 74 -50
3 0 30 -16 60 -35 29 -19 56 -31 60 -28 3 4 6 1 6 -5 0 -14 36 -7 66 13 13 8
24 12 24 8 0 -5 4 -3 8 3 11 16 99 63 106 57 3 -4 6 -2 6 4 0 6 28 25 63 43
34 18 69 39 78 46 8 8 21 14 27 14 6 0 17 6 24 12 22 21 78 50 78 41 0 -4 5 0
11 9 5 10 14 18 19 18 5 0 33 14 62 31 29 18 71 42 93 54 135 74 161 89 167
99 4 6 8 8 8 4 0 -4 21 6 47 22 26 17 53 30 60 30 7 0 13 5 13 10 0 6 6 10 13
10 7 0 27 13 44 29 l32 29 0 580 c0 564 0 581 -20 605 -18 23 -37 36 -106 71
-13 6 -23 14 -23 19 0 4 -5 7 -11 7 -6 0 -31 14 -56 30 -24 17 -48 30 -54 30
-5 0 -9 5 -9 11 0 5 -4 8 -8 5 -5 -3 -19 4 -30 15 -12 11 -22 17 -22 14 0 -3
-19 7 -42 22 -24 16 -55 35 -70 42 -16 8 -28 18 -28 23 0 5 -4 7 -9 3 -5 -3
-12 -1 -16 5 -3 5 -21 17 -39 25 -18 9 -42 24 -53 33 -10 9 -25 18 -33 20 -8
2 -21 10 -27 19 -7 9 -13 14 -13 10 0 -10 -91 42 -118 67 -13 11 -27 20 -30
19 -11 -2 -62 30 -62 40 0 4 -4 6 -10 2 -5 -3 -18 2 -28 12 -10 10 -25 19 -33
21 -7 2 -16 7 -19 11 -11 15 -56 28 -75 21z"/>
</g>
</svg>
